<?xml version="1.0" encoding="utf-8"?>
<!-- Generator: Adobe Illustrator 24.0.0, SVG Export Plug-In . SVG Version: 6.00 Build 0)  -->
<svg version="1.1" id="Layer_1" xmlns="http://www.w3.org/2000/svg" xmlns:xlink="http://www.w3.org/1999/xlink" x="0px" y="0px"
	 viewBox="0 0 500 500" style="enable-background:new 0 0 500 500;" xml:space="preserve">
<style type="text/css">
	.st0{fill:#FFFFFF;}
	.st1{fill:url(#SVGID_1_);}
	.st2{fill:url(#SVGID_2_);}
	.st3{fill:url(#SVGID_3_);}
	.st4{fill:url(#SVGID_4_);}
	.st5{fill:url(#SVGID_5_);}
	.st6{fill:url(#SVGID_6_);}
	.st7{fill:none;stroke:#FFFFFF;stroke-miterlimit:10;}
	.st8{fill:#6D6E71;}
	.st9{fill:url(#SVGID_7_);}
	.st10{fill:url(#SVGID_8_);}
	.st11{fill:url(#SVGID_9_);}
	.st12{fill:url(#SVGID_10_);}
	.st13{fill:url(#SVGID_11_);}
	.st14{fill:url(#SVGID_12_);}
	.st15{fill:url(#SVGID_13_);}
	.st16{fill:url(#SVGID_14_);}
	.st17{fill:url(#SVGID_15_);}
	.st18{fill:url(#SVGID_16_);}
	.st19{fill:url(#SVGID_17_);}
	.st20{fill:url(#SVGID_18_);}
	.st21{fill:url(#SVGID_19_);}
	.st22{fill:url(#SVGID_20_);}
	.st23{fill:url(#SVGID_21_);}
</style>
<g>
	<linearGradient id="SVGID_1_" gradientUnits="userSpaceOnUse" x1="250" y1="487.2772" x2="250" y2="12.7228">
		<stop  offset="0" style="stop-color:#12C781"/>
		<stop  offset="0.5" style="stop-color:#63E9DA"/>
		<stop  offset="1" style="stop-color:#09A9CB"/>
	</linearGradient>
	<circle class="st1" cx="250" cy="250" r="237.28"/>
	<circle class="st0" cx="250" cy="250" r="172.9"/>
	<g>
		<g>
			<linearGradient id="SVGID_2_" gradientUnits="userSpaceOnUse" x1="88.986" y1="247.9015" x2="449.4217" y2="255.7371">
				<stop  offset="0" style="stop-color:#12C781"/>
				<stop  offset="0.5" style="stop-color:#63E9DA"/>
				<stop  offset="1" style="stop-color:#09A9CB"/>
			</linearGradient>
			<path class="st2" d="M195.87,250.34c-0.04-21.48,3.47-41.92,9.79-60.44h-0.01c1.17-2.68,1.83-5.64,1.83-8.76
				c0-12.13-9.83-21.95-21.95-21.96c-12.13,0-21.95,9.83-21.95,21.96c0,3.12,0.66,6.07,1.83,8.76h0
				c6.25,18.32,9.75,38.52,9.78,59.77c0.04,21.48-3.47,41.92-9.79,60.44h0.01c-1.17,2.68-1.83,5.64-1.83,8.76
				c0,12.13,9.83,21.95,21.95,21.95c12.12,0,21.95-9.83,21.95-21.95c0-3.11-0.66-6.07-1.83-8.76
				C199.4,291.78,195.9,271.59,195.87,250.34z"/>
			<linearGradient id="SVGID_3_" gradientUnits="userSpaceOnUse" x1="88.9555" y1="249.3055" x2="449.3912" y2="257.1411">
				<stop  offset="0" style="stop-color:#12C781"/>
				<stop  offset="0.5" style="stop-color:#63E9DA"/>
				<stop  offset="1" style="stop-color:#09A9CB"/>
			</linearGradient>
			<path class="st3" d="M120.84,228.04c-12.12,0-21.95,9.83-21.95,21.96c0,12.12,9.83,21.95,21.95,21.95
				c12.12,0,21.96-9.83,21.96-21.95C142.8,237.88,132.96,228.04,120.84,228.04z"/>
		</g>
		<g>
			<linearGradient id="SVGID_4_" gradientUnits="userSpaceOnUse" x1="89.0469" y1="245.0993" x2="449.4826" y2="252.9348">
				<stop  offset="0" style="stop-color:#12C781"/>
				<stop  offset="0.5" style="stop-color:#63E9DA"/>
				<stop  offset="1" style="stop-color:#09A9CB"/>
			</linearGradient>
			<path class="st4" d="M314.48,159.18c-12.13,0-21.95,9.83-21.95,21.96c0,3.12,0.66,6.07,1.83,8.76h-0.01
				c6.32,18.52,9.83,38.95,9.79,60.44c-0.04,21.25-3.53,41.45-9.78,59.77c-1.17,2.68-1.83,5.64-1.83,8.76
				c0,12.13,9.83,21.95,21.95,21.95c12.13,0,21.95-9.83,21.95-21.95c0-3.11-0.66-6.07-1.83-8.76h0.01
				c-6.31-18.52-9.83-38.95-9.79-60.44c0.04-21.25,3.53-41.45,9.78-59.77h0c1.17-2.68,1.83-5.64,1.83-8.76
				C336.43,169.01,326.61,159.19,314.48,159.18z"/>
			<linearGradient id="SVGID_5_" gradientUnits="userSpaceOnUse" x1="89.0163" y1="246.5063" x2="449.452" y2="254.3418">
				<stop  offset="0" style="stop-color:#12C781"/>
				<stop  offset="0.5" style="stop-color:#63E9DA"/>
				<stop  offset="1" style="stop-color:#09A9CB"/>
			</linearGradient>
			<path class="st5" d="M269.94,281.08c-0.04-0.06-0.08-0.11-0.11-0.17c-1.07-2.39-2.55-4.55-4.36-6.4
				c-5.32-7.76-10.6-16.06-10.56-24.69c0.03-8.47,5.24-16.63,10.49-24.26c1.85-1.87,3.36-4.08,4.45-6.52
				c0.03-0.04,0.06-0.09,0.09-0.13h-0.02c1.18-2.7,1.85-5.67,1.85-8.81c0-12.12-9.83-21.95-21.95-21.95
				c-12.12,0-21.95,9.83-21.95,21.95c0,3.13,0.67,6.11,1.85,8.81h-0.04c0.04,0.06,0.09,0.13,0.13,0.19
				c1.07,2.37,2.54,4.52,4.33,6.36c5.32,7.77,10.61,16.07,10.58,24.71c-0.03,8.48-5.24,16.63-10.49,24.27
				c-1.85,1.87-3.35,4.07-4.44,6.5c-0.03,0.05-0.07,0.1-0.1,0.15h0.03c-1.18,2.7-1.85,5.67-1.85,8.81
				c0,12.13,9.83,21.96,21.95,21.96c12.13,0,21.95-9.83,21.95-21.96c0-3.13-0.67-6.11-1.85-8.81H269.94z"/>
			<linearGradient id="SVGID_6_" gradientUnits="userSpaceOnUse" x1="89.0775" y1="243.6926" x2="449.5132" y2="251.5281">
				<stop  offset="0" style="stop-color:#12C781"/>
				<stop  offset="0.5" style="stop-color:#63E9DA"/>
				<stop  offset="1" style="stop-color:#09A9CB"/>
			</linearGradient>
			<path class="st6" d="M379.16,228.04c-12.12,0-21.96,9.83-21.96,21.96c0,12.12,9.83,21.95,21.96,21.95
				c12.12,0,21.95-9.83,21.95-21.95C401.11,237.88,391.28,228.05,379.16,228.04z"/>
		</g>
	</g>
	<circle class="st7" cx="250" cy="250" r="204.13"/>
</g>
</svg>
